<?xml version="1.0" encoding="UTF-8"?>
<!DOCTYPE svg PUBLIC "-//W3C//DTD SVG 1.1//EN" "http://www.w3.org/Graphics/SVG/1.1/DTD/svg11.dtd">
<!-- Creator: CorelDRAW 2021 (64 Bit) -->
<svg xmlns="http://www.w3.org/2000/svg" xml:space="preserve" width="144.525mm" height="40.0189mm" version="1.1" style="shape-rendering:geometricPrecision; text-rendering:geometricPrecision; image-rendering:optimizeQuality; fill-rule:evenodd; clip-rule:evenodd"
viewBox="0 0 14451.3 4001.55"
 xmlns:xlink="http://www.w3.org/1999/xlink"
 xmlns:xodm="http://www.corel.com/coreldraw/odm/2003">
 <defs>
  <style type="text/css">
   <![CDATA[
    .fil2 {fill:#FEFEFE}
    .fil1 {fill:#FEFEFE;fill-rule:nonzero}
    .fil0 {fill:#F551B1;fill-rule:nonzero}
   ]]>
  </style>
 </defs>
 <g id="Camada_x0020_1">
  <metadata id="CorelCorpID_0Corel-Layer"/>
  <g id="_1897730673456">
   <path class="fil0" d="M1699.26 249.16l-565.23 854.91 970.33 641.77c104.18,68.76 132.64,209.02 63.86,313.19l-1284.46 1942.53 -377.22 -249.17 565.39 -854.91 -970.5 -641.76c-104.17,-68.77 -132.8,-209.02 -63.86,-313.2l1284.3 -1942.52 377.39 249.16zm-814.72 1232.15l-344.99 521.93 781.71 517.02 345.15 -521.94 -781.87 -517.01z"/>
   <g>
    <path class="fil1" d="M2896.99 2616.57c133.48,233.12 374.51,382.42 668.1,382.42 345.79,0 605.19,-201.85 605.19,-518.69 0,-233.01 -136.15,-377.31 -426.95,-505.79l-196.61 -86.27c-146.73,-65.57 -201.73,-107.55 -201.73,-199.29 0,-107.31 91.74,-167.55 214.76,-167.55 131.04,0 241.03,65.57 330.32,199.29l241.03 -186.26c-107.55,-199.06 -306.72,-327.54 -571.35,-327.54 -327.42,0 -573.8,194.05 -573.8,490.09 0,230.56 154.64,379.86 419.27,497.76l186.03 83.83c165.11,76.04 220.1,112.66 220.1,214.98 0,117.79 -91.74,191.27 -246.26,191.27 -188.83,0 -311.84,-96.97 -424.51,-251.73l-243.59 183.47zm2753.44 -426.72c0,-502.06 -573.8,-696.81 -838.44,-432.29l0 -754.96 -353.58 0 0 1965 353.58 0 0 -727.98c0,-149.29 102.32,-251.38 246.26,-251.38 144.3,0 241.04,102.55 241.04,251.38l0 727.98 351.14 0 0 -777.74zm1427.7 7.68c0,-359.05 -217.55,-555.54 -555.31,-555.54 -228.01,0 -416.61,88.94 -565.9,267.19l183.36 217.43c115.22,-123.13 209.64,-178.14 343.23,-178.14 157.21,0 241.03,83.83 241.03,227.9l0 57.67 -324.86 0c-301.37,0 -489.97,144.06 -489.97,377.31 0,227.77 173.02,387.65 448,387.65 165.11,0 301.37,-60.34 395.56,-157.09l0 125.69 324.86 0 0 -770.07zm-353.59 285.45c0,149.3 -118.01,256.61 -272.54,256.61 -112.67,0 -185.8,-54.76 -185.8,-141.5 0,-86.5 65.34,-130.92 180.57,-130.92l277.77 0 0 15.81zm1490.5 -825.06c-162.44,-50.7 -361.72,1.51 -471.37,133.01l0 -151.04 -324.86 0 0 1327.71 353.7 0 0 -647.06c0,-299.62 252.2,-411.37 442.53,-382.18l0 -280.45zm573.8 -655.32l-353.58 0 0 1965 353.58 0c0,-1081.56 0,-149.76 0,-1965z"/>
    <path class="fil1" d="M2896.99 2616.57c133.48,233.12 374.51,382.42 668.1,382.42 345.79,0 605.19,-201.85 605.19,-518.69 0,-233.01 -136.15,-377.31 -426.95,-505.79l-196.61 -86.27c-146.73,-65.57 -201.73,-107.55 -201.73,-199.29 0,-107.31 91.74,-167.55 214.76,-167.55 131.04,0 241.03,65.57 330.32,199.29l241.03 -186.26c-107.55,-199.06 -306.72,-327.54 -571.35,-327.54 -327.42,0 -573.8,194.05 -573.8,490.09 0,230.56 154.64,379.86 419.27,497.76l186.03 83.83c165.11,76.04 220.1,112.66 220.1,214.98 0,117.79 -91.74,191.27 -246.26,191.27 -188.83,0 -311.84,-96.97 -424.51,-251.73l-243.59 183.47zm2753.44 -426.72c0,-502.06 -573.8,-696.81 -838.44,-432.29l0 -754.96 -353.58 0 0 1965 353.58 0 0 -727.98c0,-149.29 102.32,-251.38 246.26,-251.38 144.3,0 241.04,102.55 241.04,251.38l0 727.98 351.14 0 0 -777.74zm1427.7 7.68c0,-359.05 -217.55,-555.54 -555.31,-555.54 -228.01,0 -416.61,88.94 -565.9,267.19l183.36 217.43c115.22,-123.13 209.64,-178.14 343.23,-178.14 157.21,0 241.03,83.83 241.03,227.9l0 57.67 -324.86 0c-301.37,0 -489.97,144.06 -489.97,377.31 0,227.77 173.02,387.65 448,387.65 165.11,0 301.37,-60.34 395.56,-157.09l0 125.69 324.86 0 0 -770.07zm-353.59 285.45c0,149.3 -118.01,256.61 -272.54,256.61 -112.67,0 -185.8,-54.76 -185.8,-141.5 0,-86.5 65.34,-130.92 180.57,-130.92l277.77 0 0 15.81zm1490.5 -825.06c-162.44,-50.7 -361.72,1.51 -471.37,133.01l0 -151.04 -324.86 0 0 1327.71 353.7 0 0 -647.06c0,-299.62 252.2,-411.37 442.53,-382.18l0 -280.45zm573.8 -655.32l-353.58 0 0 1965 353.58 0c0,-1081.56 0,-149.76 0,-1965z"/>
    <polygon class="fil2" points="9331.91,1353.08 9750.91,1353.08 9288.38,2123.78 9750.91,2967.27 9331.72,2967.27 8869.09,2123.78 "/>
    <polygon class="fil2" points="11123.2,1353.08 10704.19,1353.08 11166.73,2123.78 10704.19,2967.27 11123.39,2967.27 11586.02,2123.78 "/>
    <rect class="fil2" transform="matrix(1.35553E-13 13.3329 -5.11819 3.53116E-13 10528.8 2665.5)" width="22.64" height="117.7"/>
    <rect class="fil2" transform="matrix(1.35553E-13 13.3329 -5.11819 3.53116E-13 10528.8 2665.5)" width="22.64" height="117.7"/>
    <path class="fil1" d="M13013.35 2418.51c15.44,-64.22 23.24,-128.45 23.24,-190.02 0,-331.4 -246.61,-590.79 -598.43,-590.79 -367.25,-7.63 -672.93,297.89 -665.13,665.14 -7.8,367.25 303.02,672.93 696,665.3 187.36,0 356.97,-64.22 508.48,-190.18l-143.88 -236.15c-110.36,84.63 -228.52,128.28 -354.47,128.28 -184.87,0 -315.81,-89.78 -356.97,-251.58l891.17 0zm-891.17 -243.96c38.5,-156.66 156.66,-256.89 303.03,-256.89 151.68,0 272.33,100.23 274.82,256.89l-577.85 0z"/>
    <polygon class="fil1" points="14076.72,1639.91 13749.36,2373.51 13421.84,1639.91 13049.96,1639.91 13691.64,2968.13 13809.61,2968.13 14451.3,1639.91 "/>
   </g>
  </g>
 </g>
</svg>
